<svg
   xmlns:dc="http://purl.org/dc/elements/1.1/"
   xmlns:cc="http://creativecommons.org/ns#"
   xmlns:rdf="http://www.w3.org/1999/02/22-rdf-syntax-ns#"
   xmlns:svg="http://www.w3.org/2000/svg"
   xmlns="http://www.w3.org/2000/svg"
   xmlns:sodipodi="http://sodipodi.sourceforge.net/DTD/sodipodi-0.dtd"
   xmlns:inkscape="http://www.inkscape.org/namespaces/inkscape"
   viewBox="0 0 388.225 29"
   width="388.225"
   height="29"
   class="LogoPreview_base__3tiaW"
   version="1.1"
   id="svg22"
   sodipodi:docname="pcf_long.svg"
   inkscape:version="1.0.1 (3bc2e813f5, 2020-09-07)">
  <metadata
     id="metadata28">
    <rdf:RDF>
      <cc:Work
         rdf:about="">
        <dc:format>image/svg+xml</dc:format>
        <dc:type
           rdf:resource="http://purl.org/dc/dcmitype/StillImage" />
        <dc:title></dc:title>
      </cc:Work>
    </rdf:RDF>
  </metadata>
  <defs
     id="defs26" />
  <sodipodi:namedview
     pagecolor="#ffffff"
     bordercolor="#666666"
     borderopacity="1"
     objecttolerance="10"
     gridtolerance="10"
     guidetolerance="10"
     inkscape:pageopacity="0"
     inkscape:pageshadow="2"
     inkscape:window-width="1920"
     inkscape:window-height="1017"
     id="namedview24"
     showgrid="false"
     inkscape:zoom="3.2584197"
     inkscape:cx="194.1125"
     inkscape:cy="14.5"
     inkscape:window-x="-8"
     inkscape:window-y="-8"
     inkscape:window-maximized="1"
     inkscape:current-layer="svg22" />
  <g
     fill="#f1333f"
     color="#f1333f"
     transform="translate(0, 0) scale(0.29)"
     id="g16">
    <svg
       width="100.0"
       height="100.0"
       x="0.0"
       y="0.0"
       viewBox="0 0 100 100"
       version="1.1"
       id="svg14">
      <g
         id="g12">
        <path
           d="M84.358,35.22c0.35-0.873,0.542-1.77,0.542-2.688c0-4.9-5.203-9.262-13.299-12.079c-1.321-3.108-3.505-5.86-6.332-8.015   c-1.674-1.275-1.241-12.201-3.853-9.895C57.412,6.078,53.444,7.462,50,7.462c-7.553,0-14.235,3.135-18.424,7.963   c-0.083-0.109-0.16-0.22-0.248-0.327c-0.374-0.456-0.813-0.846-1.303-1.161c-1.49-0.957-3.487-1.211-5.481-0.695   c-0.408,0.106-0.809,0.243-1.191,0.406c-1.705,0.732-2.89,1.944-3.157,3.206c-1.126-1.206-3.337-1.626-5.587-1.043   c-0.457,0.118-0.902,0.276-1.325,0.469c-1.384,0.632-2.453,1.593-3.091,2.778c-0.276,0.513-0.471,1.068-0.577,1.646   C9.503,21.31,9.441,21.917,9.43,22.51c-0.038,1.952,0.471,3.842,1.511,5.618c0.766,1.308,1.822,2.553,3.136,3.704   c0.324,0.283,0.675,0.555,1.029,0.824c0.016,0.874,0.202,1.73,0.535,2.564C7.456,40.607,2.418,47.911,2.418,55.962   c0,0.269,0.01,0.537,0.024,0.804c0.007,0.139,0.181,0.363,0.426,0.31c0.466-0.1,1.255-0.193,1.91,0.107   c0.305,0.125,0.632,0.26,0.632,0.26c9.285,3.813,26.372,6.182,44.59,6.182c18.219,0,35.305-2.368,44.588-6.182   c0,0,0.243-0.066,0.633-0.26c0.635-0.315,1.324-0.259,1.783-0.159c0.319,0.069,0.547-0.149,0.555-0.304   c0.013-0.252,0.022-0.505,0.022-0.758C97.582,47.911,92.544,40.607,84.358,35.22z M43.77,44.799   c-0.169,1.404-0.608,2.862-1.304,4.331c-0.432,0.912-0.961,1.824-1.573,2.713c-1.089,1.584-2.428,3.073-3.771,4.193   c-1.003,0.835-1.901,1.365-2.462,1.455l-0.005,0.001l-0.009,0.001c-0.873,0.127-2.684-0.456-4.619-1.484   c-1.062-0.566-2.086-1.224-3.042-1.956c-0.862-0.66-1.647-1.364-2.337-2.093c-1.118-1.184-1.987-2.434-2.582-3.715   c-0.808-1.739-1.113-3.54-0.904-5.348c0.063-0.549,0.175-1.107,0.333-1.658c0.15-0.528,0.379-1.026,0.682-1.478   c0.697-1.043,1.774-1.839,3.115-2.303c0.409-0.143,0.836-0.25,1.271-0.318c2.14-0.341,4.154,0.245,5.092,1.464   c0.359-1.148,1.566-2.168,3.215-2.695c0.368-0.118,0.752-0.21,1.141-0.271c1.896-0.302,3.727,0.11,5.025,1.131   c0.427,0.336,0.799,0.737,1.106,1.193c0.322,0.478,0.602,0.974,0.831,1.474C43.73,41.089,43.998,42.894,43.77,44.799z    M44.947,26.102c-0.212,0.58-0.484,1.166-0.808,1.742c-0.576,1.026-1.309,2.008-2.065,2.766c-0.565,0.564-1.083,0.938-1.42,1.023   l-0.003,0.001l-0.006,0.001c-0.525,0.127-1.662-0.128-2.898-0.648c-0.679-0.286-1.34-0.63-1.963-1.023   c-0.562-0.354-1.08-0.74-1.542-1.146c-0.747-0.66-1.347-1.373-1.781-2.121c-0.589-1.016-0.875-2.097-0.849-3.21   c0.009-0.339,0.046-0.685,0.111-1.029c0.062-0.331,0.174-0.646,0.333-0.94c0.085-0.156,0.186-0.303,0.296-0.445   c0.079-0.099,0.168-0.191,0.259-0.283c0.032-0.033,0.062-0.068,0.096-0.1c0.122-0.114,0.254-0.221,0.395-0.321   c0.004-0.003,0.008-0.006,0.012-0.009c0.148-0.104,0.306-0.201,0.473-0.289c0.081-0.043,0.155-0.092,0.241-0.13   c0.241-0.11,0.496-0.199,0.757-0.265c1.286-0.327,2.546-0.082,3.185,0.609c0.155-0.719,0.835-1.409,1.81-1.822   c0.218-0.092,0.447-0.17,0.681-0.229c1.139-0.289,2.278-0.14,3.126,0.41c0.279,0.181,0.528,0.405,0.741,0.666   c0.223,0.274,0.421,0.561,0.588,0.852c0.554,0.966,0.817,2.052,0.784,3.227C45.477,24.255,45.29,25.168,44.947,26.102z    M76.558,34.639c-0.101,2.281-0.834,4.45-2.179,6.446c-0.993,1.472-2.316,2.848-3.933,4.091c-1.004,0.771-2.117,1.488-3.309,2.132   c-2.122,1.145-4.469,2.042-6.609,2.525c-1.598,0.358-2.904,0.436-3.582,0.216l-0.006-0.002l-0.012-0.004   c-1.047-0.356-2.737-2.043-4.309-4.299c-0.863-1.24-1.63-2.56-2.278-3.923c-0.586-1.23-1.06-2.466-1.414-3.674   c-0.571-1.962-0.828-3.855-0.758-5.627c0.092-2.405,0.782-4.59,2.049-6.49c0.385-0.577,0.828-1.136,1.32-1.661   c0.47-0.504,1.011-0.929,1.606-1.26c1.376-0.766,3.034-1.04,4.796-0.79c0.538,0.075,1.078,0.2,1.602,0.372   c2.585,0.843,4.5,2.649,4.85,4.548c1.058-1.077,2.989-1.524,5.132-1.171c0.479,0.078,0.96,0.196,1.429,0.349   c2.29,0.747,4.1,2.255,4.965,4.137c0.284,0.62,0.47,1.28,0.553,1.965C76.559,33.236,76.588,33.95,76.558,34.639z"
           id="path2" />
        <path
           d="M40.478,66.511c-3.839-0.171-7.534-0.443-11.043-0.806c-0.656-0.068-1.184,0.513-1.058,1.161l5.889,30.343   c0.064,0.329,0.352,0.567,0.687,0.567h7.355c0.401,0,0.721-0.337,0.699-0.737l-1.589-29.602   C41.392,66.932,40.982,66.533,40.478,66.511z"
           id="path4" />
        <path
           d="M70.542,65.707c-3.497,0.361-7.18,0.632-11.005,0.803c-0.513,0.023-0.93,0.429-0.957,0.941l-1.588,29.586   c-0.021,0.401,0.298,0.737,0.699,0.737h7.355c0.335,0,0.623-0.238,0.687-0.567l5.885-30.32   C71.746,66.229,71.21,65.638,70.542,65.707z"
           id="path6" />
        <path
           d="M13.351,64.161c-0.197-0.69-0.755-1.216-1.45-1.391c-2.524-0.633-4.801-1.326-6.775-2.075   c-0.093-0.035-0.188-0.069-0.282-0.1c-0.8-0.263-1.548,0.523-1.245,1.309l13.672,35.425c0.105,0.269,0.364,0.447,0.653,0.447h4.12   c0.465,0,0.801-0.445,0.673-0.893L13.351,64.161z"
           id="path8" />
        <path
           d="M95.129,60.604c-0.086,0.029-0.171,0.059-0.256,0.091c-1.974,0.748-4.251,1.442-6.774,2.075   c-0.696,0.174-1.253,0.701-1.45,1.391l-9.365,32.722c-0.128,0.447,0.208,0.893,0.673,0.893h4.119c0.289,0,0.548-0.177,0.653-0.447   L96.391,61.93C96.698,61.134,95.938,60.334,95.129,60.604z"
           id="path10" />
      </g>
    </svg>
  </g>
  <line
     x1="41"
     y1="1"
     x2="41"
     y2="28"
     stroke="#353434"
     stroke-linecap="round"
     id="line18" />
  <path
     fill="#353434"
     fill-rule="nonzero"
     d="M6.29 1.01Q9.50 1.01 11.33 2.54Q13.15 4.08 13.15 6.77L13.15 6.77Q13.15 9.46 11.33 10.98Q9.50 12.50 6.29 12.50L6.29 12.50L1.78 12.50L1.78 17.81L0 17.81L0 1.01L6.29 1.01ZM6.24 10.94Q8.74 10.94 10.06 9.85Q11.38 8.76 11.38 6.77L11.38 6.77Q11.38 4.73 10.06 3.64Q8.74 2.54 6.24 2.54L6.24 2.54L1.78 2.54L1.78 10.94L6.24 10.94ZM21.96 16.42Q23.14 16.42 24.13 16.00Q25.13 15.58 25.82 14.76L25.82 14.76L26.78 15.86Q25.94 16.87 24.70 17.40Q23.45 17.93 21.94 17.93L21.94 17.93Q19.99 17.93 18.48 17.10Q16.97 16.27 16.13 14.81Q15.29 13.34 15.29 11.50L15.29 11.50Q15.29 9.65 16.09 8.18Q16.90 6.72 18.31 5.90Q19.73 5.09 21.53 5.09L21.53 5.09Q23.21 5.09 24.56 5.86Q25.92 6.62 26.72 7.99Q27.53 9.36 27.58 11.11L27.58 11.11L17.21 13.13Q17.69 14.66 18.95 15.54Q20.21 16.42 21.96 16.42L21.96 16.42ZM21.53 6.55Q20.21 6.55 19.16 7.16Q18.12 7.78 17.53 8.87Q16.94 9.96 16.94 11.38L16.94 11.38Q16.94 11.74 16.97 11.90L16.97 11.90L25.87 10.18Q25.58 8.59 24.41 7.57Q23.23 6.55 21.53 6.55L21.53 6.55ZM32.69 7.66Q33.29 6.38 34.48 5.74Q35.66 5.09 37.42 5.09L37.42 5.09L37.42 6.74L37.01 6.72Q35.02 6.72 33.89 7.94Q32.76 9.17 32.76 11.38L32.76 11.38L32.76 17.81L31.06 17.81L31.06 5.18L32.69 5.18L32.69 7.66ZM40.49 17.81L40.49 5.18L42.19 5.18L42.19 17.81L40.49 17.81ZM41.35 2.42Q40.82 2.42 40.46 2.06Q40.10 1.70 40.10 1.20L40.10 1.20Q40.10 0.72 40.46 0.36Q40.82 0 41.35 0L41.35 0Q41.88 0 42.24 0.35Q42.60 0.70 42.60 1.18L42.60 1.18Q42.60 1.70 42.24 2.06Q41.88 2.42 41.35 2.42L41.35 2.42ZM50.33 17.93Q48.79 17.93 47.39 17.48Q45.98 17.04 45.19 16.37L45.19 16.37L45.96 15.02Q46.75 15.65 47.95 16.04Q49.15 16.44 50.45 16.44L50.45 16.44Q52.18 16.44 53.00 15.90Q53.83 15.36 53.83 14.38L53.83 14.38Q53.83 13.68 53.38 13.28Q52.92 12.89 52.22 12.68Q51.53 12.48 50.38 12.29L50.38 12.29Q48.84 12 47.90 11.70Q46.97 11.40 46.31 10.68Q45.65 9.96 45.65 8.69L45.65 8.69Q45.65 7.10 46.97 6.10Q48.29 5.09 50.64 5.09L50.64 5.09Q51.86 5.09 53.09 5.41Q54.31 5.74 55.10 6.26L55.10 6.26L54.36 7.63Q52.80 6.55 50.64 6.55L50.64 6.55Q49.01 6.55 48.18 7.13Q47.35 7.70 47.35 8.64L47.35 8.64Q47.35 9.36 47.82 9.79Q48.29 10.22 48.98 10.43Q49.68 10.63 50.90 10.85L50.90 10.85Q52.42 11.14 53.33 11.42Q54.24 11.71 54.89 12.41Q55.54 13.10 55.54 14.33L55.54 14.33Q55.54 15.98 54.16 16.96Q52.78 17.93 50.33 17.93L50.33 17.93ZM65.11 5.09Q67.49 5.09 68.89 6.47Q70.30 7.85 70.30 10.49L70.30 10.49L70.30 17.81L68.59 17.81L68.59 10.66Q68.59 8.69 67.61 7.66Q66.62 6.62 64.80 6.62L64.80 6.62Q62.76 6.62 61.57 7.84Q60.38 9.05 60.38 11.18L60.38 11.18L60.38 17.81L58.68 17.81L58.68 0L60.38 0L60.38 7.39Q61.08 6.29 62.30 5.69Q63.53 5.09 65.11 5.09L65.11 5.09ZM84.79 5.18L86.50 5.18L86.50 17.81L84.86 17.81L84.86 15.31Q84.10 16.58 82.84 17.26Q81.58 17.93 79.99 17.93L79.99 17.93Q78.22 17.93 76.78 17.11Q75.34 16.30 74.52 14.83Q73.70 13.37 73.70 11.50L73.70 11.50Q73.70 9.62 74.52 8.16Q75.34 6.70 76.78 5.89Q78.22 5.09 79.99 5.09L79.99 5.09Q81.53 5.09 82.76 5.72Q84.00 6.36 84.79 7.58L84.79 7.58L84.79 5.18ZM80.14 16.42Q81.46 16.42 82.52 15.80Q83.59 15.19 84.20 14.06Q84.82 12.94 84.82 11.50L84.82 11.50Q84.82 10.06 84.20 8.93Q83.59 7.80 82.52 7.19Q81.46 6.58 80.14 6.58L80.14 6.58Q78.79 6.58 77.72 7.19Q76.66 7.80 76.04 8.93Q75.43 10.06 75.43 11.50L75.43 11.50Q75.43 12.94 76.04 14.06Q76.66 15.19 77.72 15.80Q78.79 16.42 80.14 16.42L80.14 16.42ZM97.75 5.09Q99.53 5.09 100.97 5.89Q102.41 6.70 103.22 8.16Q104.04 9.62 104.04 11.50L104.04 11.50Q104.04 13.37 103.22 14.83Q102.41 16.30 100.97 17.11Q99.53 17.93 97.75 17.93L97.75 17.93Q96.17 17.93 94.91 17.26Q93.65 16.58 92.88 15.31L92.88 15.31L92.88 17.81L91.25 17.81L91.25 0L92.95 0L92.95 7.58Q93.74 6.36 94.98 5.72Q96.22 5.09 97.75 5.09L97.75 5.09ZM97.63 16.42Q98.95 16.42 100.03 15.80Q101.11 15.19 101.72 14.06Q102.34 12.94 102.34 11.50L102.34 11.50Q102.34 10.06 101.72 8.93Q101.11 7.80 100.03 7.19Q98.95 6.58 97.63 6.58L97.63 6.58Q96.29 6.58 95.22 7.19Q94.15 7.80 93.54 8.93Q92.93 10.06 92.93 11.50L92.93 11.50Q92.93 12.94 93.54 14.06Q94.15 15.19 95.22 15.80Q96.29 16.42 97.63 16.42L97.63 16.42ZM111.07 17.93Q109.37 17.93 108.44 16.97Q107.52 16.01 107.52 14.30L107.52 14.30L107.52 0L109.22 0L109.22 14.16Q109.22 15.29 109.75 15.88Q110.28 16.46 111.34 16.46L111.34 16.46Q112.01 16.46 112.49 16.25L112.49 16.25L112.61 17.66Q111.86 17.93 111.07 17.93L111.07 17.93ZM120.10 16.42Q121.27 16.42 122.27 16.00Q123.26 15.58 123.96 14.76L123.96 14.76L124.92 15.86Q124.08 16.87 122.83 17.40Q121.58 17.93 120.07 17.93L120.07 17.93Q118.13 17.93 116.62 17.10Q115.10 16.27 114.26 14.81Q113.42 13.34 113.42 11.50L113.42 11.50Q113.42 9.65 114.23 8.18Q115.03 6.72 116.45 5.90Q117.86 5.09 119.66 5.09L119.66 5.09Q121.34 5.09 122.70 5.86Q124.06 6.62 124.86 7.99Q125.66 9.36 125.71 11.11L125.71 11.11L115.34 13.13Q115.82 14.66 117.08 15.54Q118.34 16.42 120.10 16.42L120.10 16.42ZM119.66 6.55Q118.34 6.55 117.30 7.16Q116.26 7.78 115.67 8.87Q115.08 9.96 115.08 11.38L115.08 11.38Q115.08 11.74 115.10 11.90L115.10 11.90L124.01 10.18Q123.72 8.59 122.54 7.57Q121.37 6.55 119.66 6.55L119.66 6.55ZM143.14 17.95Q140.64 17.95 138.64 16.85Q136.63 15.74 135.49 13.79Q134.35 11.83 134.35 9.41L134.35 9.41Q134.35 6.98 135.49 5.03Q136.63 3.07 138.65 1.97Q140.66 0.86 143.16 0.86L143.16 0.86Q145.03 0.86 146.62 1.49Q148.20 2.11 149.30 3.31L149.30 3.31L148.18 4.44Q146.21 2.45 143.21 2.45L143.21 2.45Q141.22 2.45 139.58 3.36Q137.95 4.27 137.03 5.86Q136.10 7.44 136.10 9.41L136.10 9.41Q136.10 11.38 137.03 12.96Q137.95 14.54 139.58 15.46Q141.22 16.37 143.21 16.37L143.21 16.37Q146.23 16.37 148.18 14.35L148.18 14.35L149.30 15.48Q148.20 16.68 146.60 17.32Q145.01 17.95 143.14 17.95L143.14 17.95ZM161.98 5.18L163.68 5.18L163.68 17.81L162.05 17.81L162.05 15.50Q161.38 16.66 160.20 17.29Q159.02 17.93 157.51 17.93L157.51 17.93Q155.04 17.93 153.61 16.55Q152.18 15.17 152.18 12.50L152.18 12.50L152.18 5.18L153.89 5.18L153.89 12.34Q153.89 14.33 154.87 15.36Q155.86 16.39 157.68 16.39L157.68 16.39Q159.67 16.39 160.82 15.18Q161.98 13.97 161.98 11.81L161.98 11.81L161.98 5.18ZM174.96 5.09Q176.74 5.09 178.18 5.89Q179.62 6.70 180.43 8.16Q181.25 9.62 181.25 11.50L181.25 11.50Q181.25 13.39 180.43 14.86Q179.62 16.32 178.19 17.12Q176.76 17.93 174.96 17.93L174.96 17.93Q173.42 17.93 172.19 17.29Q170.95 16.66 170.16 15.43L170.16 15.43L170.16 22.46L168.46 22.46L168.46 5.18L170.09 5.18L170.09 7.68Q170.86 6.43 172.12 5.76Q173.38 5.09 174.96 5.09L174.96 5.09ZM174.84 16.42Q176.16 16.42 177.24 15.80Q178.32 15.19 178.93 14.06Q179.54 12.94 179.54 11.50L179.54 11.50Q179.54 10.06 178.93 8.94Q178.32 7.82 177.24 7.20Q176.16 6.58 174.84 6.58L174.84 6.58Q173.50 6.58 172.43 7.20Q171.36 7.82 170.75 8.94Q170.14 10.06 170.14 11.50L170.14 11.50Q170.14 12.94 170.75 14.06Q171.36 15.19 172.43 15.80Q173.50 16.42 174.84 16.42L174.84 16.42ZM189.96 17.93Q188.09 17.93 186.61 17.11Q185.14 16.30 184.30 14.82Q183.46 13.34 183.46 11.50L183.46 11.50Q183.46 9.65 184.30 8.18Q185.14 6.72 186.61 5.90Q188.09 5.09 189.96 5.09L189.96 5.09Q191.59 5.09 192.88 5.72Q194.16 6.36 194.90 7.58L194.90 7.58L193.63 8.45Q193.01 7.51 192.05 7.04Q191.09 6.58 189.96 6.58L189.96 6.58Q188.59 6.58 187.50 7.19Q186.41 7.80 185.80 8.93Q185.18 10.06 185.18 11.50L185.18 11.50Q185.18 12.96 185.80 14.08Q186.41 15.19 187.50 15.80Q188.59 16.42 189.96 16.42L189.96 16.42Q191.09 16.42 192.05 15.96Q193.01 15.50 193.63 14.57L193.63 14.57L194.90 15.43Q194.16 16.66 192.86 17.29Q191.57 17.93 189.96 17.93L189.96 17.93ZM207.84 5.18L209.54 5.18L209.54 17.81L207.91 17.81L207.91 15.31Q207.14 16.58 205.88 17.26Q204.62 17.93 203.04 17.93L203.04 17.93Q201.26 17.93 199.82 17.11Q198.38 16.30 197.57 14.83Q196.75 13.37 196.75 11.50L196.75 11.50Q196.75 9.62 197.57 8.16Q198.38 6.70 199.82 5.89Q201.26 5.09 203.04 5.09L203.04 5.09Q204.58 5.09 205.81 5.72Q207.05 6.36 207.84 7.58L207.84 7.58L207.84 5.18ZM203.18 16.42Q204.50 16.42 205.57 15.80Q206.64 15.19 207.25 14.06Q207.86 12.94 207.86 11.50L207.86 11.50Q207.86 10.06 207.25 8.93Q206.64 7.80 205.57 7.19Q204.50 6.58 203.18 6.58L203.18 6.58Q201.84 6.58 200.77 7.19Q199.70 7.80 199.09 8.93Q198.48 10.06 198.48 11.50L198.48 11.50Q198.48 12.94 199.09 14.06Q199.70 15.19 200.77 15.80Q201.84 16.42 203.18 16.42L203.18 16.42ZM224.06 17.81L218.98 11.47L216.00 14.21L216.00 17.81L214.30 17.81L214.30 0L216.00 0L216.00 12.07L223.54 5.18L225.65 5.18L220.25 10.34L226.15 17.81L224.06 17.81ZM233.62 16.42Q234.79 16.42 235.79 16.00Q236.78 15.58 237.48 14.76L237.48 14.76L238.44 15.86Q237.60 16.87 236.35 17.40Q235.10 17.93 233.59 17.93L233.59 17.93Q231.65 17.93 230.14 17.10Q228.62 16.27 227.78 14.81Q226.94 13.34 226.94 11.50L226.94 11.50Q226.94 9.65 227.75 8.18Q228.55 6.72 229.97 5.90Q231.38 5.09 233.18 5.09L233.18 5.09Q234.86 5.09 236.22 5.86Q237.58 6.62 238.38 7.99Q239.18 9.36 239.23 11.11L239.23 11.11L228.86 13.13Q229.34 14.66 230.60 15.54Q231.86 16.42 233.62 16.42L233.62 16.42ZM233.18 6.55Q231.86 6.55 230.82 7.16Q229.78 7.78 229.19 8.87Q228.60 9.96 228.60 11.38L228.60 11.38Q228.60 11.74 228.62 11.90L228.62 11.90L237.53 10.18Q237.24 8.59 236.06 7.57Q234.89 6.55 233.18 6.55L233.18 6.55ZM255.89 2.45Q253.42 2.45 252.20 3.56Q250.99 4.68 250.99 6.79L250.99 6.79L250.99 9.14L259.01 9.14L259.01 10.68L250.99 10.68L250.99 17.81L249.22 17.81L249.22 6.77Q249.22 4.01 250.94 2.44Q252.67 0.86 255.82 0.86L255.82 0.86Q258.86 0.86 260.71 2.18L260.71 2.18L260.06 3.65Q258.43 2.45 255.89 2.45L255.89 2.45ZM272.54 5.18L274.25 5.18L274.25 17.81L272.62 17.81L272.62 15.31Q271.85 16.58 270.59 17.26Q269.33 17.93 267.74 17.93L267.74 17.93Q265.97 17.93 264.53 17.11Q263.09 16.30 262.27 14.83Q261.46 13.37 261.46 11.50L261.46 11.50Q261.46 9.62 262.27 8.16Q263.09 6.70 264.53 5.89Q265.97 5.09 267.74 5.09L267.74 5.09Q269.28 5.09 270.52 5.72Q271.75 6.36 272.54 7.58L272.54 7.58L272.54 5.18ZM267.89 16.42Q269.21 16.42 270.28 15.80Q271.34 15.19 271.96 14.06Q272.57 12.94 272.57 11.50L272.57 11.50Q272.57 10.06 271.96 8.93Q271.34 7.80 270.28 7.19Q269.21 6.58 267.89 6.58L267.89 6.58Q266.54 6.58 265.48 7.19Q264.41 7.80 263.80 8.93Q263.18 10.06 263.18 11.50L263.18 11.50Q263.18 12.94 263.80 14.06Q264.41 15.19 265.48 15.80Q266.54 16.42 267.89 16.42L267.89 16.42ZM284.23 17.93Q282.36 17.93 280.88 17.11Q279.41 16.30 278.57 14.82Q277.73 13.34 277.73 11.50L277.73 11.50Q277.73 9.65 278.57 8.18Q279.41 6.72 280.88 5.90Q282.36 5.09 284.23 5.09L284.23 5.09Q285.86 5.09 287.15 5.72Q288.43 6.36 289.18 7.58L289.18 7.58L287.90 8.45Q287.28 7.51 286.32 7.04Q285.36 6.58 284.23 6.58L284.23 6.58Q282.86 6.58 281.77 7.19Q280.68 7.80 280.07 8.93Q279.46 10.06 279.46 11.50L279.46 11.50Q279.46 12.96 280.07 14.08Q280.68 15.19 281.77 15.80Q282.86 16.42 284.23 16.42L284.23 16.42Q285.36 16.42 286.32 15.96Q287.28 15.50 287.90 14.57L287.90 14.57L289.18 15.43Q288.43 16.66 287.14 17.29Q285.84 17.93 284.23 17.93L284.23 17.93ZM297.94 15.82L298.54 17.04Q298.06 17.47 297.36 17.70Q296.66 17.93 295.90 17.93L295.90 17.93Q294.12 17.93 293.16 16.97Q292.20 16.01 292.20 14.26L292.20 14.26L292.20 2.42L293.90 2.42L293.90 5.18L297.72 5.18L297.72 6.62L293.90 6.62L293.90 14.16Q293.90 15.29 294.46 15.88Q295.01 16.46 296.06 16.46L296.06 16.46Q297.22 16.46 297.94 15.82L297.94 15.82ZM306.34 17.93Q304.51 17.93 303.05 17.10Q301.58 16.27 300.74 14.81Q299.90 13.34 299.90 11.50L299.90 11.50Q299.90 9.65 300.74 8.18Q301.58 6.72 303.05 5.90Q304.51 5.09 306.34 5.09L306.34 5.09Q308.16 5.09 309.62 5.90Q311.09 6.72 311.92 8.18Q312.74 9.65 312.74 11.50L312.74 11.50Q312.74 13.34 311.92 14.81Q311.09 16.27 309.62 17.10Q308.16 17.93 306.34 17.93L306.34 17.93ZM306.34 16.42Q307.68 16.42 308.75 15.80Q309.82 15.19 310.42 14.06Q311.02 12.94 311.02 11.50L311.02 11.50Q311.02 10.06 310.42 8.93Q309.82 7.80 308.75 7.19Q307.68 6.58 306.34 6.58L306.34 6.58Q304.99 6.58 303.92 7.19Q302.86 7.80 302.24 8.93Q301.63 10.06 301.63 11.50L301.63 11.50Q301.63 12.94 302.24 14.06Q302.86 15.19 303.92 15.80Q304.99 16.42 306.34 16.42L306.34 16.42ZM317.86 7.66Q318.46 6.38 319.64 5.74Q320.83 5.09 322.58 5.09L322.58 5.09L322.58 6.74L322.18 6.72Q320.18 6.72 319.06 7.94Q317.93 9.17 317.93 11.38L317.93 11.38L317.93 17.81L316.22 17.81L316.22 5.18L317.86 5.18L317.86 7.66ZM335.52 5.18L337.22 5.18L337.22 16.27Q337.22 19.49 335.76 21.04Q334.30 22.58 331.34 22.58L331.34 22.58Q329.69 22.58 328.21 22.07Q326.74 21.55 325.82 20.64L325.82 20.64L326.69 19.34Q327.50 20.16 328.70 20.62Q329.90 21.07 331.27 21.07L331.27 21.07Q333.46 21.07 334.49 19.96Q335.52 18.84 335.52 16.49L335.52 16.49L335.52 15.02Q334.85 16.13 333.68 16.73Q332.52 17.33 331.06 17.33L331.06 17.33Q328.58 17.33 327.16 15.95Q325.73 14.57 325.73 11.90L325.73 11.90L325.73 5.18L327.43 5.18L327.43 11.74Q327.43 13.73 328.42 14.76Q329.40 15.79 331.22 15.79L331.22 15.79Q333.22 15.79 334.37 14.58Q335.52 13.37 335.52 11.21L335.52 11.21L335.52 5.18Z"
     transform="translate(51, 5.596)"
     id="path20" />
</svg>
